<?xml version="1.0" encoding="utf-8"?>
<!-- Generator: Adobe Illustrator 22.0.1, SVG Export Plug-In . SVG Version: 6.00 Build 0)  -->
<svg version="1.1" id="Capa_1" xmlns="http://www.w3.org/2000/svg" xmlns:xlink="http://www.w3.org/1999/xlink" x="0px" y="0px"
	 viewBox="0 0 195 195" style="enable-background:new 0 0 195 195;" xml:space="preserve">
<style type="text/css">
	.st0{fill:#FFFFFF;stroke:#FFFFFF;stroke-width:7;stroke-miterlimit:10;}
</style>
<path class="st0" d="M170.7,170.7L170.7,170.7c-2.1,2.1-5.4,2.1-7.4,0L24.3,31.8c-2.1-2.1-2.1-5.4,0-7.4l0,0c2.1-2.1,5.4-2.1,7.4,0
	l138.9,138.9C172.7,165.3,172.7,168.6,170.7,170.7z"/>
<path class="st0" d="M24.3,170.7L24.3,170.7c-2.1-2.1-2.1-5.4,0-7.4l138.9-139c2.1-2.1,5.4-2.1,7.4,0l0,0c2.1,2.1,2.1,5.4,0,7.4
	l-138.8,139C29.7,172.7,26.4,172.7,24.3,170.7z"/>
</svg>
